<svg xmlns="http://www.w3.org/2000/svg" xmlns:xlink="http://www.w3.org/1999/xlink" width="250" zoomAndPan="magnify" viewBox="0 0 187.5 97.5" height="130" preserveAspectRatio="xMidYMid meet" version="1.0"><defs><g/><clipPath id="6ef70d9b05"><path d="M 10.8125 5.652344 L 138.191406 5.652344 L 138.191406 52.570312 L 10.8125 52.570312 Z M 10.8125 5.652344 " clip-rule="nonzero"/></clipPath><clipPath id="d1fd6bc77a"><path d="M 15.289062 5.652344 L 133.710938 5.652344 C 136.183594 5.652344 138.1875 7.65625 138.1875 10.128906 L 138.1875 48.09375 C 138.1875 50.566406 136.183594 52.570312 133.710938 52.570312 L 15.289062 52.570312 C 12.816406 52.570312 10.8125 50.566406 10.8125 48.09375 L 10.8125 10.128906 C 10.8125 7.65625 12.816406 5.652344 15.289062 5.652344 Z M 15.289062 5.652344 " clip-rule="nonzero"/></clipPath><clipPath id="1d725a4d8c"><path d="M 141.902344 6.605469 L 174.054688 6.605469 L 174.054688 52.324219 L 141.902344 52.324219 Z M 141.902344 6.605469 " clip-rule="nonzero"/></clipPath><clipPath id="1318756122"><path d="M 146.378906 6.605469 L 169.578125 6.605469 C 172.050781 6.605469 174.054688 8.609375 174.054688 11.082031 L 174.054688 47.820312 C 174.054688 50.292969 172.050781 52.300781 169.578125 52.300781 L 146.378906 52.300781 C 143.90625 52.300781 141.902344 50.292969 141.902344 47.820312 L 141.902344 11.082031 C 141.902344 8.609375 143.90625 6.605469 146.378906 6.605469 Z M 146.378906 6.605469 " clip-rule="nonzero"/></clipPath></defs><g clip-path="url(#6ef70d9b05)"><g clip-path="url(#d1fd6bc77a)"><path fill="#007bff" d="M 10.8125 5.652344 L 138.191406 5.652344 L 138.191406 52.570312 L 10.8125 52.570312 Z M 10.8125 5.652344 " fill-opacity="1" fill-rule="nonzero"/></g></g><g clip-path="url(#1d725a4d8c)"><g clip-path="url(#1318756122)"><path fill="#ebf3fc" d="M 141.902344 6.605469 L 174.054688 6.605469 L 174.054688 52.324219 L 141.902344 52.324219 Z M 141.902344 6.605469 " fill-opacity="1" fill-rule="nonzero"/></g></g><g fill="#007bff" fill-opacity="1"><g transform="translate(164.369127, 50.892448)"><g><path d="M 0 -0.546875 L -2.984375 -0.546875 L -2.984375 -4.125 L 0 -4.125 Z M 0 -0.546875 "/></g></g></g><g fill="#007bff" fill-opacity="1"><g transform="translate(164.369127, 46.208513)"><g><path d="M 0.15625 -5.21875 C 0.15625 -3.582031 -0.253906 -2.398438 -1.078125 -1.671875 C -1.910156 -0.953125 -3.1875 -0.59375 -4.90625 -0.59375 L -9.53125 -0.59375 C -10.820312 -0.59375 -11.875 -0.734375 -12.6875 -1.015625 C -13.5 -1.296875 -14.109375 -1.765625 -14.515625 -2.421875 C -14.929688 -3.085938 -15.140625 -4.003906 -15.140625 -5.171875 C -15.140625 -6.453125 -14.800781 -7.492188 -14.125 -8.296875 C -13.457031 -9.109375 -12.523438 -9.515625 -11.328125 -9.515625 L -9.046875 -9.515625 L -9.046875 -5.875 L -11.140625 -5.875 C -11.535156 -5.875 -11.835938 -5.816406 -12.046875 -5.703125 C -12.265625 -5.597656 -12.375 -5.390625 -12.375 -5.078125 C -12.375 -4.484375 -11.957031 -4.1875 -11.125 -4.1875 L -3.859375 -4.1875 C -3.523438 -4.1875 -3.238281 -4.257812 -3 -4.40625 C -2.757812 -4.550781 -2.640625 -4.765625 -2.640625 -5.046875 C -2.640625 -5.335938 -2.753906 -5.550781 -2.984375 -5.6875 C -3.210938 -5.832031 -3.515625 -5.898438 -3.890625 -5.890625 L -6.40625 -5.875 L -6.40625 -9.515625 L -3.78125 -9.515625 C -2.550781 -9.515625 -1.585938 -9.113281 -0.890625 -8.3125 C -0.191406 -7.519531 0.15625 -6.488281 0.15625 -5.21875 Z M 0.15625 -5.21875 "/></g></g></g><g fill="#007bff" fill-opacity="1"><g transform="translate(164.369127, 36.165646)"><g><path d="M 0.15625 -5.078125 C 0.15625 -2.085938 -1.390625 -0.59375 -4.484375 -0.59375 L -10.5 -0.59375 C -11.914062 -0.59375 -13.039062 -0.988281 -13.875 -1.78125 C -14.71875 -2.582031 -15.140625 -3.679688 -15.140625 -5.078125 C -15.140625 -6.460938 -14.71875 -7.550781 -13.875 -8.34375 C -13.039062 -9.144531 -11.914062 -9.546875 -10.5 -9.546875 L -4.484375 -9.546875 C -1.390625 -9.546875 0.15625 -8.054688 0.15625 -5.078125 Z M -2.59375 -5.078125 C -2.59375 -5.359375 -2.695312 -5.566406 -2.90625 -5.703125 C -3.113281 -5.835938 -3.394531 -5.90625 -3.75 -5.90625 L -11.0625 -5.90625 C -11.9375 -5.90625 -12.375 -5.628906 -12.375 -5.078125 C -12.375 -4.515625 -11.9375 -4.234375 -11.0625 -4.234375 L -3.75 -4.234375 C -3.394531 -4.234375 -3.113281 -4.300781 -2.90625 -4.4375 C -2.695312 -4.570312 -2.59375 -4.785156 -2.59375 -5.078125 Z M -2.59375 -5.078125 "/></g></g></g><g fill="#007bff" fill-opacity="1"><g transform="translate(164.369127, 26.000065)"><g><path d="M -14.96875 -0.71875 L -14.96875 -4.21875 L -13.234375 -4.21875 C -13.867188 -4.375 -14.34375 -4.648438 -14.65625 -5.046875 C -14.976562 -5.441406 -15.140625 -6.003906 -15.140625 -6.734375 C -15.140625 -7.316406 -15.003906 -7.820312 -14.734375 -8.25 C -14.472656 -8.675781 -14.109375 -8.976562 -13.640625 -9.15625 C -14.160156 -9.457031 -14.539062 -9.789062 -14.78125 -10.15625 C -15.019531 -10.53125 -15.140625 -11.046875 -15.140625 -11.703125 C -15.140625 -12.867188 -14.78125 -13.679688 -14.0625 -14.140625 C -13.34375 -14.597656 -12.300781 -14.828125 -10.9375 -14.828125 L 0 -14.78125 L 0 -11.1875 L -11 -11.1875 C -11.96875 -11.1875 -12.453125 -10.941406 -12.453125 -10.453125 C -12.453125 -10.109375 -12.285156 -9.859375 -11.953125 -9.703125 C -11.617188 -9.554688 -11.222656 -9.484375 -10.765625 -9.484375 L 0 -9.484375 L 0 -5.90625 L -11 -5.90625 C -11.425781 -5.90625 -11.769531 -5.859375 -12.03125 -5.765625 C -12.289062 -5.679688 -12.421875 -5.5 -12.421875 -5.21875 C -12.421875 -4.84375 -12.238281 -4.582031 -11.875 -4.4375 C -11.507812 -4.289062 -11.078125 -4.21875 -10.578125 -4.21875 L 0 -4.21875 L 0 -0.71875 Z M -14.96875 -0.71875 "/></g></g></g><g fill="#ffffff" fill-opacity="1"><g transform="translate(20.136828, 44.293045)"><g><path d="M 1.390625 0 L 1.390625 -31.484375 L 14 -31.484375 L 14 -25.40625 L 7.8125 -25.40625 L 7.8125 -19.28125 L 13.75 -19.28125 L 13.75 -13.34375 L 7.8125 -13.34375 L 7.8125 -6.125 L 14.40625 -6.125 L 14.40625 0 Z M 1.390625 0 "/></g></g></g><g fill="#ffffff" fill-opacity="1"><g transform="translate(35.24167, 44.293045)"><g><path d="M 1.390625 0 L 1.390625 -31.484375 L 7.703125 -31.484375 L 7.703125 -5.359375 L 14.1875 -5.359375 L 14.1875 0 Z M 1.390625 0 "/></g></g></g><g fill="#ffffff" fill-opacity="1"><g transform="translate(49.796584, 44.293045)"><g><path d="M 1.390625 0 L 1.390625 -31.484375 L 14 -31.484375 L 14 -25.359375 L 7.734375 -25.359375 L 7.734375 -20.34375 L 13.671875 -20.34375 L 13.671875 -14.296875 L 7.734375 -14.296875 L 7.734375 0 Z M 1.390625 0 "/></g></g></g><g fill="#ffffff" fill-opacity="1"><g transform="translate(64.424816, 44.293045)"><g><path d="M 1.25 -28.625 L 1.25 -33.09375 L 7.65625 -33.09375 L 7.65625 -28.625 Z M 1.25 0 L 1.25 -26.828125 L 7.65625 -26.828125 L 7.65625 0 Z M 1.25 0 "/></g></g></g><g fill="#ffffff" fill-opacity="1"><g transform="translate(73.33374, 44.293045)"><g><path d="M 1.28125 -26.828125 L 7.703125 -26.828125 L 7.703125 -23.421875 C 7.960938 -24.523438 8.421875 -25.414062 9.078125 -26.09375 C 9.742188 -26.78125 10.628906 -27.125 11.734375 -27.125 C 13.535156 -27.125 14.867188 -26.566406 15.734375 -25.453125 C 16.609375 -24.347656 17.046875 -22.765625 17.046875 -20.703125 L 17.046875 0 L 10.734375 0 L 10.734375 -20.046875 C 10.734375 -20.640625 10.617188 -21.140625 10.390625 -21.546875 C 10.160156 -21.960938 9.800781 -22.171875 9.3125 -22.171875 C 8.65625 -22.171875 8.222656 -21.867188 8.015625 -21.265625 C 7.804688 -20.671875 7.703125 -19.875 7.703125 -18.875 L 7.703125 0 L 1.28125 0 Z M 1.28125 -26.828125 "/></g></g></g><g fill="#ffffff" fill-opacity="1"><g transform="translate(91.628201, 44.293045)"><g><path d="M 1.25 -28.625 L 1.25 -33.09375 L 7.65625 -33.09375 L 7.65625 -28.625 Z M 1.25 0 L 1.25 -26.828125 L 7.65625 -26.828125 L 7.65625 0 Z M 1.25 0 "/></g></g></g><g fill="#ffffff" fill-opacity="1"><g transform="translate(100.537125, 44.293045)"><g><path d="M 6.8125 0.296875 C 5.125 0.296875 3.960938 -0.0546875 3.328125 -0.765625 C 2.691406 -1.472656 2.375 -2.609375 2.375 -4.171875 L 2.375 -20.9375 L 0.59375 -20.9375 L 0.59375 -25.8125 L 2.375 -25.8125 L 2.375 -31.484375 L 8.609375 -31.484375 L 8.609375 -25.8125 L 10.453125 -25.8125 L 10.453125 -20.9375 L 8.609375 -20.9375 L 8.609375 -5.859375 C 8.609375 -5.398438 8.644531 -5.0625 8.71875 -4.84375 C 8.789062 -4.625 8.988281 -4.515625 9.3125 -4.515625 C 9.550781 -4.515625 9.78125 -4.523438 10 -4.546875 C 10.226562 -4.566406 10.378906 -4.578125 10.453125 -4.578125 L 10.453125 -0.1875 C 10.078125 -0.0820312 9.539062 0.0195312 8.84375 0.125 C 8.15625 0.238281 7.476562 0.296875 6.8125 0.296875 Z M 6.8125 0.296875 "/></g></g></g><g fill="#ffffff" fill-opacity="1"><g transform="translate(111.719117, 44.293045)"><g><path d="M 8.796875 0.296875 C 6.035156 0.296875 4.054688 -0.457031 2.859375 -1.96875 C 1.660156 -3.488281 1.0625 -5.753906 1.0625 -8.765625 L 1.0625 -19.53125 C 1.0625 -22 1.769531 -23.878906 3.1875 -25.171875 C 4.601562 -26.472656 6.582031 -27.125 9.125 -27.125 C 14.28125 -27.125 16.859375 -24.59375 16.859375 -19.53125 L 16.859375 -17.59375 C 16.859375 -15.632812 16.832031 -14.046875 16.78125 -12.828125 L 7.484375 -12.828125 L 7.484375 -7.625 C 7.484375 -6.695312 7.578125 -5.96875 7.765625 -5.4375 C 7.960938 -4.914062 8.378906 -4.65625 9.015625 -4.65625 C 9.503906 -4.65625 9.851562 -4.800781 10.0625 -5.09375 C 10.269531 -5.382812 10.390625 -5.71875 10.421875 -6.09375 C 10.460938 -6.476562 10.484375 -7.035156 10.484375 -7.765625 L 10.484375 -10.375 L 16.859375 -10.375 L 16.859375 -8.828125 C 16.859375 -5.703125 16.253906 -3.398438 15.046875 -1.921875 C 13.835938 -0.441406 11.753906 0.296875 8.796875 0.296875 Z M 10.484375 -16.015625 L 10.484375 -19.46875 C 10.484375 -21.394531 10.003906 -22.359375 9.046875 -22.359375 C 7.972656 -22.359375 7.4375 -21.394531 7.4375 -19.46875 L 7.4375 -16.015625 Z M 10.484375 -16.015625 "/></g></g></g><g fill="#000000" fill-opacity="1"><g transform="translate(12.606436, 75.018833)"><g><path d="M 4.34375 0.140625 C 3.101562 0.140625 2.160156 -0.234375 1.515625 -0.984375 C 0.878906 -1.742188 0.5625 -2.8125 0.5625 -4.1875 L 0.5625 -11.515625 C 0.5625 -12.835938 0.878906 -13.835938 1.515625 -14.515625 C 2.160156 -15.191406 3.101562 -15.53125 4.34375 -15.53125 C 5.59375 -15.53125 6.535156 -15.191406 7.171875 -14.515625 C 7.816406 -13.835938 8.140625 -12.835938 8.140625 -11.515625 L 8.140625 -4.1875 C 8.140625 -2.800781 7.816406 -1.734375 7.171875 -0.984375 C 6.535156 -0.234375 5.59375 0.140625 4.34375 0.140625 Z M 4.34375 -2.6875 C 4.625 -2.6875 4.8125 -2.804688 4.90625 -3.046875 C 5 -3.285156 5.046875 -3.617188 5.046875 -4.046875 L 5.046875 -11.5625 C 5.046875 -11.894531 5 -12.164062 4.90625 -12.375 C 4.820312 -12.59375 4.644531 -12.703125 4.375 -12.703125 C 3.851562 -12.703125 3.59375 -12.3125 3.59375 -11.53125 L 3.59375 -4.03125 C 3.59375 -3.582031 3.644531 -3.242188 3.75 -3.015625 C 3.863281 -2.796875 4.0625 -2.6875 4.34375 -2.6875 Z M 4.34375 -2.6875 "/></g></g></g><g fill="#000000" fill-opacity="1"><g transform="translate(21.309781, 75.018833)"><g><path d="M 0.625 -13.109375 L 3.765625 -13.109375 L 3.765625 -11.4375 C 3.890625 -11.976562 4.113281 -12.414062 4.4375 -12.75 C 4.757812 -13.082031 5.191406 -13.25 5.734375 -13.25 C 6.617188 -13.25 7.269531 -12.976562 7.6875 -12.4375 C 8.113281 -11.894531 8.328125 -11.117188 8.328125 -10.109375 L 8.328125 0 L 5.25 0 L 5.25 -9.796875 C 5.25 -10.078125 5.191406 -10.316406 5.078125 -10.515625 C 4.960938 -10.722656 4.785156 -10.828125 4.546875 -10.828125 C 4.222656 -10.828125 4.007812 -10.679688 3.90625 -10.390625 C 3.8125 -10.097656 3.765625 -9.707031 3.765625 -9.21875 L 3.765625 0 L 0.625 0 Z M 0.625 -13.109375 "/></g></g></g><g fill="#000000" fill-opacity="1"><g transform="translate(30.24593, 75.018833)"><g><path d="M 0.625 0 L 0.625 -15.46875 L 3.8125 -15.46875 L 3.8125 0 Z M 0.625 0 "/></g></g></g><g fill="#000000" fill-opacity="1"><g transform="translate(34.68714, 75.018833)"><g><path d="M 0.609375 -13.984375 L 0.609375 -16.171875 L 3.75 -16.171875 L 3.75 -13.984375 Z M 0.609375 0 L 0.609375 -13.109375 L 3.75 -13.109375 L 3.75 0 Z M 0.609375 0 "/></g></g></g><g fill="#000000" fill-opacity="1"><g transform="translate(39.038812, 75.018833)"><g><path d="M 0.625 -13.109375 L 3.765625 -13.109375 L 3.765625 -11.4375 C 3.890625 -11.976562 4.113281 -12.414062 4.4375 -12.75 C 4.757812 -13.082031 5.191406 -13.25 5.734375 -13.25 C 6.617188 -13.25 7.269531 -12.976562 7.6875 -12.4375 C 8.113281 -11.894531 8.328125 -11.117188 8.328125 -10.109375 L 8.328125 0 L 5.25 0 L 5.25 -9.796875 C 5.25 -10.078125 5.191406 -10.316406 5.078125 -10.515625 C 4.960938 -10.722656 4.785156 -10.828125 4.546875 -10.828125 C 4.222656 -10.828125 4.007812 -10.679688 3.90625 -10.390625 C 3.8125 -10.097656 3.765625 -9.707031 3.765625 -9.21875 L 3.765625 0 L 0.625 0 Z M 0.625 -13.109375 "/></g></g></g><g fill="#000000" fill-opacity="1"><g transform="translate(47.974961, 75.018833)"><g><path d="M 4.296875 0.140625 C 2.953125 0.140625 1.984375 -0.226562 1.390625 -0.96875 C 0.804688 -1.707031 0.515625 -2.8125 0.515625 -4.28125 L 0.515625 -9.546875 C 0.515625 -10.753906 0.859375 -11.671875 1.546875 -12.296875 C 2.242188 -12.929688 3.210938 -13.25 4.453125 -13.25 C 6.972656 -13.25 8.234375 -12.015625 8.234375 -9.546875 L 8.234375 -8.59375 C 8.234375 -7.632812 8.222656 -6.859375 8.203125 -6.265625 L 3.65625 -6.265625 L 3.65625 -3.71875 C 3.65625 -3.269531 3.703125 -2.914062 3.796875 -2.65625 C 3.890625 -2.40625 4.09375 -2.28125 4.40625 -2.28125 C 4.644531 -2.28125 4.8125 -2.347656 4.90625 -2.484375 C 5.007812 -2.628906 5.070312 -2.796875 5.09375 -2.984375 C 5.113281 -3.171875 5.125 -3.441406 5.125 -3.796875 L 5.125 -5.0625 L 8.234375 -5.0625 L 8.234375 -4.3125 C 8.234375 -2.78125 7.9375 -1.65625 7.34375 -0.9375 C 6.757812 -0.21875 5.742188 0.140625 4.296875 0.140625 Z M 5.125 -7.828125 L 5.125 -9.515625 C 5.125 -10.453125 4.890625 -10.921875 4.421875 -10.921875 C 3.898438 -10.921875 3.640625 -10.453125 3.640625 -9.515625 L 3.640625 -7.828125 Z M 5.125 -7.828125 "/></g></g></g><g fill="#000000" fill-opacity="1"><g transform="translate(56.714115, 75.018833)"><g/></g></g><g fill="#000000" fill-opacity="1"><g transform="translate(60.904611, 75.018833)"><g><path d="M 4.5625 0.140625 C 3.132812 0.140625 2.101562 -0.222656 1.46875 -0.953125 C 0.832031 -1.679688 0.515625 -2.796875 0.515625 -4.296875 L 0.515625 -8.34375 C 0.515625 -9.476562 0.632812 -10.398438 0.875 -11.109375 C 1.125 -11.816406 1.535156 -12.347656 2.109375 -12.703125 C 2.691406 -13.066406 3.5 -13.25 4.53125 -13.25 C 5.65625 -13.25 6.566406 -12.957031 7.265625 -12.375 C 7.972656 -11.789062 8.328125 -10.972656 8.328125 -9.921875 L 8.328125 -7.921875 L 5.140625 -7.921875 L 5.140625 -9.765625 C 5.140625 -10.109375 5.09375 -10.367188 5 -10.546875 C 4.90625 -10.734375 4.71875 -10.828125 4.4375 -10.828125 C 3.925781 -10.828125 3.671875 -10.460938 3.671875 -9.734375 L 3.671875 -3.390625 C 3.671875 -3.085938 3.734375 -2.832031 3.859375 -2.625 C 3.984375 -2.414062 4.171875 -2.3125 4.421875 -2.3125 C 4.671875 -2.3125 4.859375 -2.410156 4.984375 -2.609375 C 5.109375 -2.816406 5.164062 -3.082031 5.15625 -3.40625 L 5.140625 -5.609375 L 8.328125 -5.609375 L 8.328125 -3.3125 C 8.328125 -2.238281 7.976562 -1.394531 7.28125 -0.78125 C 6.582031 -0.164062 5.675781 0.140625 4.5625 0.140625 Z M 4.5625 0.140625 "/></g></g></g><g fill="#000000" fill-opacity="1"><g transform="translate(69.697494, 75.018833)"><g><path d="M 4.4375 0.140625 C 1.820312 0.140625 0.515625 -1.210938 0.515625 -3.921875 L 0.515625 -9.1875 C 0.515625 -10.425781 0.863281 -11.410156 1.5625 -12.140625 C 2.257812 -12.878906 3.21875 -13.25 4.4375 -13.25 C 5.65625 -13.25 6.613281 -12.878906 7.3125 -12.140625 C 8.007812 -11.410156 8.359375 -10.425781 8.359375 -9.1875 L 8.359375 -3.921875 C 8.359375 -1.210938 7.050781 0.140625 4.4375 0.140625 Z M 4.4375 -2.28125 C 4.6875 -2.28125 4.867188 -2.367188 4.984375 -2.546875 C 5.109375 -2.722656 5.171875 -2.96875 5.171875 -3.28125 L 5.171875 -9.6875 C 5.171875 -10.445312 4.925781 -10.828125 4.4375 -10.828125 C 3.945312 -10.828125 3.703125 -10.445312 3.703125 -9.6875 L 3.703125 -3.28125 C 3.703125 -2.96875 3.757812 -2.722656 3.875 -2.546875 C 4 -2.367188 4.1875 -2.28125 4.4375 -2.28125 Z M 4.4375 -2.28125 "/></g></g></g><g fill="#000000" fill-opacity="1"><g transform="translate(78.597823, 75.018833)"><g><path d="M 3.15625 0.140625 C 2.175781 0.140625 1.503906 -0.148438 1.140625 -0.734375 C 0.773438 -1.316406 0.59375 -2.1875 0.59375 -3.34375 L 0.59375 -13.109375 L 3.75 -13.109375 L 3.75 -3.96875 C 3.75 -3.882812 3.75 -3.660156 3.75 -3.296875 C 3.75 -2.929688 3.800781 -2.675781 3.90625 -2.53125 C 4.019531 -2.382812 4.195312 -2.3125 4.4375 -2.3125 C 4.757812 -2.3125 4.960938 -2.441406 5.046875 -2.703125 C 5.128906 -2.972656 5.171875 -3.363281 5.171875 -3.875 L 5.171875 -3.96875 L 5.1875 -13.109375 L 8.3125 -13.109375 L 8.3125 0 L 5.171875 0 L 5.171875 -1.390625 C 4.960938 -0.847656 4.710938 -0.457031 4.421875 -0.21875 C 4.140625 0.0195312 3.71875 0.140625 3.15625 0.140625 Z M 3.15625 0.140625 "/></g></g></g><g fill="#000000" fill-opacity="1"><g transform="translate(87.533972, 75.018833)"><g><path d="M 0.625 -13.109375 L 3.8125 -13.109375 L 3.8125 -12.40625 C 4.269531 -12.96875 4.894531 -13.25 5.6875 -13.25 C 6.707031 -13.25 7.414062 -12.90625 7.8125 -12.21875 C 8.21875 -11.539062 8.421875 -10.601562 8.421875 -9.40625 L 8.421875 -4.546875 C 8.421875 -3.523438 8.359375 -2.6875 8.234375 -2.03125 C 8.117188 -1.382812 7.859375 -0.859375 7.453125 -0.453125 C 7.046875 -0.0546875 6.429688 0.140625 5.609375 0.140625 C 4.816406 0.140625 4.21875 -0.078125 3.8125 -0.515625 L 3.8125 2.609375 L 0.625 2.609375 Z M 4.5625 -2.296875 C 4.851562 -2.296875 5.039062 -2.425781 5.125 -2.6875 C 5.207031 -2.945312 5.25 -3.328125 5.25 -3.828125 L 5.25 -9.40625 C 5.25 -9.851562 5.207031 -10.195312 5.125 -10.4375 C 5.039062 -10.675781 4.847656 -10.796875 4.546875 -10.796875 C 4.054688 -10.796875 3.8125 -10.34375 3.8125 -9.4375 L 3.8125 -3.6875 C 3.8125 -3.25 3.863281 -2.90625 3.96875 -2.65625 C 4.070312 -2.414062 4.269531 -2.296875 4.5625 -2.296875 Z M 4.5625 -2.296875 "/></g></g></g><g fill="#000000" fill-opacity="1"><g transform="translate(96.48803, 75.018833)"><g><path d="M 4.4375 0.140625 C 1.820312 0.140625 0.515625 -1.210938 0.515625 -3.921875 L 0.515625 -9.1875 C 0.515625 -10.425781 0.863281 -11.410156 1.5625 -12.140625 C 2.257812 -12.878906 3.21875 -13.25 4.4375 -13.25 C 5.65625 -13.25 6.613281 -12.878906 7.3125 -12.140625 C 8.007812 -11.410156 8.359375 -10.425781 8.359375 -9.1875 L 8.359375 -3.921875 C 8.359375 -1.210938 7.050781 0.140625 4.4375 0.140625 Z M 4.4375 -2.28125 C 4.6875 -2.28125 4.867188 -2.367188 4.984375 -2.546875 C 5.109375 -2.722656 5.171875 -2.96875 5.171875 -3.28125 L 5.171875 -9.6875 C 5.171875 -10.445312 4.925781 -10.828125 4.4375 -10.828125 C 3.945312 -10.828125 3.703125 -10.445312 3.703125 -9.6875 L 3.703125 -3.28125 C 3.703125 -2.96875 3.757812 -2.722656 3.875 -2.546875 C 4 -2.367188 4.1875 -2.28125 4.4375 -2.28125 Z M 4.4375 -2.28125 "/></g></g></g><g fill="#000000" fill-opacity="1"><g transform="translate(105.38836, 75.018833)"><g><path d="M 0.625 -13.109375 L 3.765625 -13.109375 L 3.765625 -11.4375 C 3.890625 -11.976562 4.113281 -12.414062 4.4375 -12.75 C 4.757812 -13.082031 5.191406 -13.25 5.734375 -13.25 C 6.617188 -13.25 7.269531 -12.976562 7.6875 -12.4375 C 8.113281 -11.894531 8.328125 -11.117188 8.328125 -10.109375 L 8.328125 0 L 5.25 0 L 5.25 -9.796875 C 5.25 -10.078125 5.191406 -10.316406 5.078125 -10.515625 C 4.960938 -10.722656 4.785156 -10.828125 4.546875 -10.828125 C 4.222656 -10.828125 4.007812 -10.679688 3.90625 -10.390625 C 3.8125 -10.097656 3.765625 -9.707031 3.765625 -9.21875 L 3.765625 0 L 0.625 0 Z M 0.625 -13.109375 "/></g></g></g><g fill="#000000" fill-opacity="1"><g transform="translate(114.324509, 75.018833)"><g/></g></g><g fill="#000000" fill-opacity="1"><g transform="translate(118.515005, 75.018833)"><g><path d="M 4.21875 0.140625 C 1.632812 0.140625 0.34375 -1.171875 0.34375 -3.796875 L 0.359375 -4.828125 L 3.484375 -4.828125 L 3.515625 -3.296875 C 3.515625 -2.984375 3.570312 -2.742188 3.6875 -2.578125 C 3.8125 -2.421875 4.007812 -2.34375 4.28125 -2.34375 C 4.695312 -2.34375 4.90625 -2.679688 4.90625 -3.359375 C 4.90625 -3.867188 4.804688 -4.265625 4.609375 -4.546875 C 4.410156 -4.835938 4.097656 -5.144531 3.671875 -5.46875 L 2 -6.75 C 1.425781 -7.1875 1.015625 -7.640625 0.765625 -8.109375 C 0.515625 -8.585938 0.390625 -9.253906 0.390625 -10.109375 C 0.390625 -10.785156 0.566406 -11.359375 0.921875 -11.828125 C 1.273438 -12.296875 1.742188 -12.648438 2.328125 -12.890625 C 2.910156 -13.128906 3.5625 -13.25 4.28125 -13.25 C 6.820312 -13.25 8.09375 -11.984375 8.09375 -9.453125 L 8.09375 -9.203125 L 4.859375 -9.203125 L 4.859375 -9.703125 C 4.859375 -10.015625 4.804688 -10.28125 4.703125 -10.5 C 4.597656 -10.71875 4.425781 -10.828125 4.1875 -10.828125 C 3.976562 -10.828125 3.816406 -10.765625 3.703125 -10.640625 C 3.585938 -10.515625 3.53125 -10.347656 3.53125 -10.140625 C 3.53125 -9.660156 3.710938 -9.289062 4.078125 -9.03125 L 6.015625 -7.609375 C 6.710938 -7.097656 7.242188 -6.539062 7.609375 -5.9375 C 7.984375 -5.332031 8.171875 -4.570312 8.171875 -3.65625 C 8.171875 -2.4375 7.820312 -1.5 7.125 -0.84375 C 6.4375 -0.1875 5.46875 0.140625 4.21875 0.140625 Z M 4.21875 0.140625 "/></g></g></g><g fill="#000000" fill-opacity="1"><g transform="translate(127.021355, 75.018833)"><g><path d="M 4.296875 0.140625 C 2.953125 0.140625 1.984375 -0.226562 1.390625 -0.96875 C 0.804688 -1.707031 0.515625 -2.8125 0.515625 -4.28125 L 0.515625 -9.546875 C 0.515625 -10.753906 0.859375 -11.671875 1.546875 -12.296875 C 2.242188 -12.929688 3.210938 -13.25 4.453125 -13.25 C 6.972656 -13.25 8.234375 -12.015625 8.234375 -9.546875 L 8.234375 -8.59375 C 8.234375 -7.632812 8.222656 -6.859375 8.203125 -6.265625 L 3.65625 -6.265625 L 3.65625 -3.71875 C 3.65625 -3.269531 3.703125 -2.914062 3.796875 -2.65625 C 3.890625 -2.40625 4.09375 -2.28125 4.40625 -2.28125 C 4.644531 -2.28125 4.8125 -2.347656 4.90625 -2.484375 C 5.007812 -2.628906 5.070312 -2.796875 5.09375 -2.984375 C 5.113281 -3.171875 5.125 -3.441406 5.125 -3.796875 L 5.125 -5.0625 L 8.234375 -5.0625 L 8.234375 -4.3125 C 8.234375 -2.78125 7.9375 -1.65625 7.34375 -0.9375 C 6.757812 -0.21875 5.742188 0.140625 4.296875 0.140625 Z M 5.125 -7.828125 L 5.125 -9.515625 C 5.125 -10.453125 4.890625 -10.921875 4.421875 -10.921875 C 3.898438 -10.921875 3.640625 -10.453125 3.640625 -9.515625 L 3.640625 -7.828125 Z M 5.125 -7.828125 "/></g></g></g><g fill="#000000" fill-opacity="1"><g transform="translate(135.760508, 75.018833)"><g><path d="M 3.015625 0.140625 C 1.992188 0.140625 1.296875 -0.191406 0.921875 -0.859375 C 0.546875 -1.535156 0.359375 -2.503906 0.359375 -3.765625 C 0.359375 -4.785156 0.488281 -5.570312 0.75 -6.125 C 1.019531 -6.675781 1.394531 -7.078125 1.875 -7.328125 C 2.351562 -7.585938 3.082031 -7.875 4.0625 -8.1875 L 4.921875 -8.46875 L 4.921875 -9.8125 C 4.921875 -10.15625 4.851562 -10.421875 4.71875 -10.609375 C 4.582031 -10.796875 4.414062 -10.890625 4.21875 -10.890625 C 4.050781 -10.890625 3.90625 -10.8125 3.78125 -10.65625 C 3.65625 -10.5 3.59375 -10.289062 3.59375 -10.03125 L 3.59375 -9.234375 L 0.5625 -9.234375 L 0.5625 -9.671875 C 0.5625 -10.960938 0.859375 -11.878906 1.453125 -12.421875 C 2.054688 -12.972656 3.039062 -13.25 4.40625 -13.25 C 5.488281 -13.25 6.367188 -12.960938 7.046875 -12.390625 C 7.734375 -11.828125 8.078125 -11.023438 8.078125 -9.984375 L 8.078125 0 L 4.953125 0 L 4.953125 -1.5625 C 4.804688 -1.019531 4.5625 -0.597656 4.21875 -0.296875 C 3.875 -0.00390625 3.472656 0.140625 3.015625 0.140625 Z M 4.25 -2.296875 C 4.488281 -2.296875 4.65625 -2.394531 4.75 -2.59375 C 4.851562 -2.789062 4.90625 -3.03125 4.90625 -3.3125 L 4.90625 -6.96875 C 4.4375 -6.789062 4.09375 -6.5625 3.875 -6.28125 C 3.65625 -6.007812 3.546875 -5.628906 3.546875 -5.140625 L 3.546875 -3.453125 C 3.546875 -2.679688 3.78125 -2.296875 4.25 -2.296875 Z M 4.25 -2.296875 "/></g></g></g><g fill="#000000" fill-opacity="1"><g transform="translate(144.410125, 75.018833)"><g><path d="M 0.625 -13.109375 L 3.765625 -13.109375 L 3.765625 -11.65625 C 3.921875 -12.164062 4.191406 -12.5625 4.578125 -12.84375 C 4.960938 -13.125 5.441406 -13.265625 6.015625 -13.265625 L 6.015625 -10.65625 C 5.578125 -10.65625 5.09375 -10.59375 4.5625 -10.46875 C 4.03125 -10.34375 3.765625 -10.195312 3.765625 -10.03125 L 3.765625 0 L 0.625 0 Z M 0.625 -13.109375 "/></g></g></g><g fill="#000000" fill-opacity="1"><g transform="translate(150.570519, 75.018833)"><g><path d="M 4.5625 0.140625 C 3.132812 0.140625 2.101562 -0.222656 1.46875 -0.953125 C 0.832031 -1.679688 0.515625 -2.796875 0.515625 -4.296875 L 0.515625 -8.34375 C 0.515625 -9.476562 0.632812 -10.398438 0.875 -11.109375 C 1.125 -11.816406 1.535156 -12.347656 2.109375 -12.703125 C 2.691406 -13.066406 3.5 -13.25 4.53125 -13.25 C 5.65625 -13.25 6.566406 -12.957031 7.265625 -12.375 C 7.972656 -11.789062 8.328125 -10.972656 8.328125 -9.921875 L 8.328125 -7.921875 L 5.140625 -7.921875 L 5.140625 -9.765625 C 5.140625 -10.109375 5.09375 -10.367188 5 -10.546875 C 4.90625 -10.734375 4.71875 -10.828125 4.4375 -10.828125 C 3.925781 -10.828125 3.671875 -10.460938 3.671875 -9.734375 L 3.671875 -3.390625 C 3.671875 -3.085938 3.734375 -2.832031 3.859375 -2.625 C 3.984375 -2.414062 4.171875 -2.3125 4.421875 -2.3125 C 4.671875 -2.3125 4.859375 -2.410156 4.984375 -2.609375 C 5.109375 -2.816406 5.164062 -3.082031 5.15625 -3.40625 L 5.140625 -5.609375 L 8.328125 -5.609375 L 8.328125 -3.3125 C 8.328125 -2.238281 7.976562 -1.394531 7.28125 -0.78125 C 6.582031 -0.164062 5.675781 0.140625 4.5625 0.140625 Z M 4.5625 0.140625 "/></g></g></g><g fill="#000000" fill-opacity="1"><g transform="translate(159.363401, 75.018833)"><g><path d="M 0.625 -15.46875 L 3.84375 -15.46875 L 3.84375 -11.8125 C 4.175781 -12.769531 4.816406 -13.25 5.765625 -13.25 C 6.648438 -13.25 7.316406 -12.96875 7.765625 -12.40625 C 8.222656 -11.84375 8.453125 -11.070312 8.453125 -10.09375 L 8.453125 0 L 5.3125 0 L 5.3125 -9.90625 C 5.3125 -10.1875 5.242188 -10.414062 5.109375 -10.59375 C 4.984375 -10.78125 4.796875 -10.875 4.546875 -10.875 C 4.328125 -10.875 4.15625 -10.78125 4.03125 -10.59375 C 3.90625 -10.40625 3.84375 -10.179688 3.84375 -9.921875 L 3.84375 0 L 0.625 0 Z M 0.625 -15.46875 "/></g></g></g></svg>